<svg width="474" height="177" viewBox="0 0 474 177" fill="none" xmlns="http://www.w3.org/2000/svg">
<path d="M148.472 115.728H112.016V73.32H99.864V115.728H16.536L109.04 1.39999H94.904L0.664 117.712V126.888H99.616V175H112.016V126.888H148.472V115.728ZM233.858 176.24C273.786 176.24 301.81 142.512 301.81 88.2C301.81 33.888 273.786 0.159989 233.858 0.159989C193.93 0.159989 165.906 33.888 165.906 88.2C165.906 142.512 193.93 176.24 233.858 176.24ZM233.858 164.584C201.122 164.584 178.554 136.56 178.554 88.2C178.554 39.84 201.122 11.816 233.858 11.816C266.594 11.816 289.162 39.84 289.162 88.2C289.162 136.56 266.594 164.584 233.858 164.584ZM473.972 115.728H437.516V73.32H425.364V115.728H342.036L434.54 1.39999H420.404L326.164 117.712V126.888H425.116V175H437.516V126.888H473.972V115.728Z" fill="#27392D"/>
</svg>
