<svg width="20" height="20" viewBox="0 0 20 20" fill="none" xmlns="http://www.w3.org/2000/svg">
<path d="M12.8332 6.66659C12.8332 8.23139 11.5646 9.49992 9.99984 9.49992C8.43503 9.49992 7.1665 8.23139 7.1665 6.66659C7.1665 5.10178 8.43503 3.83325 9.99984 3.83325C11.5646 3.83325 12.8332 5.10178 12.8332 6.66659Z" stroke="#27392D" stroke-linecap="round"/>
<path d="M3.89557 14.7476C4.35607 12.3614 6.8314 11.25 9.26167 11.25H10.7383C13.1686 11.25 15.6439 12.3614 16.1044 14.7476C16.1361 14.9116 16.1634 15.08 16.1856 15.2523C16.256 15.8001 15.8023 16.25 15.25 16.25H4.75C4.19771 16.25 3.74395 15.8001 3.81441 15.2523C3.83657 15.08 3.86392 14.9116 3.89557 14.7476Z" stroke="#27392D" stroke-linecap="round"/>
</svg>
