<svg width="20" height="20" viewBox="0 0 20 20" fill="none" xmlns="http://www.w3.org/2000/svg">
<path d="M11.6663 5.83325V5.83325C11.6663 5.3686 11.6663 5.13627 11.6279 4.94307C11.4701 4.14969 10.8499 3.52949 10.0565 3.37168C9.86332 3.33325 9.63099 3.33325 9.16634 3.33325H7.33301C5.44739 3.33325 4.50458 3.33325 3.91879 3.91904C3.33301 4.50482 3.33301 5.44763 3.33301 7.33325V9.16658C3.33301 9.63124 3.33301 9.86357 3.37144 10.0568C3.52925 10.8501 4.14945 11.4703 4.94283 11.6282C5.13603 11.6666 5.36835 11.6666 5.83301 11.6666V11.6666" stroke="#27392D"/>
<rect x="8.33301" y="8.33325" width="8.33333" height="8.33333" rx="2" stroke="#27392D"/>
</svg>
