<svg width="18" height="18" viewBox="0 0 18 18" fill="none" xmlns="http://www.w3.org/2000/svg">
<rect x="2.25" y="4.5" width="13.5" height="11.25" rx="2" stroke="#BABABA" stroke-width="2"/>
<path d="M2.25 7.5C2.25 6.56812 2.25 6.10218 2.40224 5.73463C2.60523 5.24458 2.99458 4.85523 3.48463 4.65224C3.85218 4.5 4.31812 4.5 5.25 4.5H12.75C13.6819 4.5 14.1478 4.5 14.5154 4.65224C15.0054 4.85523 15.3948 5.24458 15.5978 5.73463C15.75 6.10218 15.75 6.56812 15.75 7.5H2.25Z" fill="#BABABA"/>
<path d="M5.25 2.25L5.25 4.5" stroke="#BABABA" stroke-width="2" stroke-linecap="round"/>
<path d="M12.75 2.25L12.75 4.5" stroke="#BABABA" stroke-width="2" stroke-linecap="round"/>
<rect x="5.25" y="9" width="3" height="1.5" rx="0.5" fill="#BABABA"/>
<rect x="5.25" y="12" width="3" height="1.5" rx="0.5" fill="#BABABA"/>
<rect x="9.75" y="9" width="3" height="1.5" rx="0.5" fill="#BABABA"/>
<rect x="9.75" y="12" width="3" height="1.5" rx="0.5" fill="#BABABA"/>
</svg>
