<svg width="10" height="8" viewBox="0 0 10 8" fill="none" xmlns="http://www.w3.org/2000/svg">
<path d="M8.88889 0H3.70961C3.19497 0 2.77778 0.417195 2.77778 0.931832C2.77778 1.21019 2.90222 1.47397 3.11704 1.65098L3.78333 2.2C3.85 2.25143 3.88889 2.33714 3.88889 2.42286V4.85714C3.88889 5.01714 3.76667 5.14286 3.61111 5.14286H1.38889C1.23333 5.14286 1.11111 5.01714 1.11111 4.85714V2.42286C1.11111 2.33714 1.15 2.25143 1.21667 2.2L1.88296 1.65098C2.09778 1.47397 2.22222 1.21019 2.22222 0.931832C2.22222 0.417195 1.80503 0 1.29039 0H1.11111C0.5 0 0 0.514286 0 1.14286V5.71429C0 6.97714 0.994444 8 2.22222 8H5.55556C6.78333 8 7.77778 6.97714 7.77778 5.71429V5.11111C7.77778 4.49746 8.27524 4 8.88889 4C9.5 4 10 3.48571 10 2.85714V1.14286C10 0.514286 9.5 0 8.88889 0ZM8.88889 2.30159C8.88889 2.60841 8.64016 2.85714 8.33333 2.85714C8.02651 2.85714 7.77778 2.60841 7.77778 2.30159V1.69841C7.77778 1.39159 8.02651 1.14286 8.33333 1.14286C8.64016 1.14286 8.88889 1.39159 8.88889 1.69841V2.30159Z" fill="#D6D1BB"/>
</svg>
