<svg width="82" height="82" viewBox="0 0 82 82" fill="none" xmlns="http://www.w3.org/2000/svg">
<path d="M41 71.75C36.9619 71.75 32.9632 70.9546 29.2325 69.4093C25.5017 67.864 22.1119 65.5989 19.2565 62.7435C16.4011 59.8881 14.136 56.4983 12.5907 52.7675C11.0454 49.0368 10.25 45.0381 10.25 41C10.25 36.9618 11.0454 32.9632 12.5907 29.2325C14.136 25.5017 16.4011 22.1119 19.2565 19.2565C22.1119 16.4011 25.5017 14.136 29.2325 12.5907C32.9633 11.0454 36.9619 10.25 41 10.25C45.0382 10.25 49.0368 11.0454 52.7675 12.5907C56.4983 14.136 59.8881 16.4011 62.7435 19.2565C65.5989 22.1119 67.864 25.5017 69.4093 29.2325C70.9546 32.9633 71.75 36.9619 71.75 41C71.75 45.0382 70.9546 49.0368 69.4093 52.7675C67.864 56.4983 65.5989 59.8881 62.7435 62.7435C59.8881 65.5989 56.4983 67.864 52.7675 69.4093C49.0367 70.9546 45.0381 71.75 41 71.75L41 71.75Z" stroke="#FF0000" stroke-width="3" stroke-linecap="round"/>
<path d="M30.75 30.75L51.25 51.25" stroke="#FF0000" stroke-width="3" stroke-linecap="round"/>
<path d="M51.25 30.75L30.75 51.25" stroke="#FF0000" stroke-width="3" stroke-linecap="round"/>
</svg>
