<svg width="30" height="30" viewBox="0 0 30 30" fill="none" xmlns="http://www.w3.org/2000/svg">
<path d="M22.5 2.5125L7.5 2.5C6.1125 2.5 5 3.6125 5 5V25C5 26.3875 6.1125 27.5 7.5 27.5H22.5C23.8875 27.5 25 26.3875 25 25V5C25 3.6125 23.8875 2.5125 22.5 2.5125ZM22.5 25H7.5L7.4875 5H22.5V25Z" fill="#748678"/>
<path d="M10 8.75C10.6904 8.75 11.25 8.19036 11.25 7.5C11.25 6.80964 10.6904 6.25 10 6.25C9.30964 6.25 8.75 6.80964 8.75 7.5C8.75 8.19036 9.30964 8.75 10 8.75Z" fill="#748678"/>
<path d="M13.75 8.75C14.4404 8.75 15 8.19036 15 7.5C15 6.80964 14.4404 6.25 13.75 6.25C13.0596 6.25 12.5 6.80964 12.5 7.5C12.5 8.19036 13.0596 8.75 13.75 8.75Z" fill="#748678"/>
<path d="M15 23.75C18.45 23.75 21.25 20.95 21.25 17.5C21.25 14.05 18.45 11.25 15 11.25C11.55 11.25 8.75 14.05 8.75 17.5C8.75 20.95 11.55 23.75 15 23.75ZM17.95 14.55C19.575 16.175 19.575 18.825 17.95 20.45C16.325 22.075 13.675 22.075 12.05 20.45L17.95 14.55Z" fill="#748678"/>
</svg>
