<svg width="30" height="30" viewBox="0 0 30 30" fill="none" xmlns="http://www.w3.org/2000/svg">
<path d="M23.75 3.75H6.25C4.875 3.75 3.75 4.875 3.75 6.25V23.75C3.75 25.125 4.875 26.25 6.25 26.25H23.75C25.125 26.25 26.25 25.125 26.25 23.75V6.25C26.25 4.875 25.125 3.75 23.75 3.75ZM23.75 23.75H6.25V6.25H23.75V23.75Z" fill="#748678"/>
<path d="M15 22.5C19.1375 22.5 22.5 19.1375 22.5 15C22.5 10.8625 19.1375 7.5 15 7.5C10.8625 7.5 7.5 10.8625 7.5 15C7.5 19.1375 10.8625 22.5 15 22.5ZM14.0625 19.9C13.375 19.775 12.75 19.5 12.1875 19.125L14.0625 17.25V19.9ZM15.9375 19.9V17.2625L17.8125 19.1375C17.25 19.5125 16.625 19.775 15.9375 19.9ZM19.1375 17.8125L17.2625 15.9375H19.9C19.775 16.625 19.5125 17.25 19.1375 17.8125ZM19.9 14.0625H17.2625L19.1375 12.1875C19.5125 12.75 19.775 13.375 19.9 14.0625ZM15.9375 10.1C16.625 10.225 17.25 10.5 17.8125 10.875L15.9375 12.75V10.1ZM15 13.75C15.6875 13.75 16.25 14.3125 16.25 15C16.25 15.6875 15.6875 16.25 15 16.25C14.3125 16.25 13.75 15.6875 13.75 15C13.75 14.3125 14.3125 13.75 15 13.75ZM14.0625 10.1V12.7375L12.1875 10.8625C12.75 10.4875 13.375 10.225 14.0625 10.1ZM10.8625 12.1875L12.7375 14.0625H10.1C10.225 13.375 10.4875 12.75 10.8625 12.1875ZM12.7375 15.9375L10.8625 17.8125C10.4875 17.2625 10.225 16.625 10.0875 15.9375H12.7375Z" fill="#748678"/>
</svg>
