<svg width="181" height="120" viewBox="0 0 181 120" fill="none" xmlns="http://www.w3.org/2000/svg">
<path d="M109.563 23.0214C108.154 18.1244 104.155 14.9666 101.429 10.8476C100.565 9.52039 99.7928 7.96434 99.9746 6.40828C100.202 4.39457 102.065 2.65546 104.11 2.65546C106.291 2.65546 108.063 4.30304 109.427 6.04216C108.972 3.29618 106.882 0.733276 104.11 0.184082C101.383 -0.365113 98.4295 0.32138 96.3391 2.15203C94.5668 3.70808 93.5216 5.99639 93.3399 8.33047C92.9763 13.4105 97.5206 16.7514 100.474 20.1839C102.383 22.3349 104.064 24.9894 103.974 28.0099C103.883 30.2067 102.156 32.2204 100.02 32.6781C97.5661 33.1815 95.4303 31.1678 94.0215 29.3829C94.476 32.1289 96.5663 34.6918 99.3384 35.241C102.065 35.7902 105.019 35.1037 107.109 33.273C107.245 33.1357 107.382 33.0442 107.518 32.9069C110.199 30.1152 110.517 26.4539 109.563 23.0214Z" fill="#D6D1BB"/>
<path d="M111.063 29.5659C111.017 28.7879 110.881 27.9641 110.745 27.186C110.745 27.4149 110.699 27.5979 110.654 27.8268C110.154 31.5796 107.927 35.1494 105.473 37.8953C103.065 40.5955 100.156 42.7923 97.0207 44.623C93.6579 46.5909 89.977 47.9639 86.4779 49.7488C82.7061 51.7167 78.5254 54.0966 76.4804 57.9867C74.6172 61.5107 75.5261 66.2704 79.0252 68.3756C78.8435 64.8058 80.2522 61.2361 82.7516 58.7189C84.8874 56.5679 87.4777 55.5611 90.1588 54.3254C94.2032 52.4947 98.4294 50.9387 101.883 48.0554C104.882 45.5383 107.518 42.3346 109.109 38.7191C109.654 37.5292 110.063 36.3393 110.381 35.0578C110.835 33.2729 111.154 31.3965 111.063 29.5659Z" fill="#D6D1BB"/>
<path d="M104.292 38.1704C104.201 38.2162 104.155 38.3077 104.064 38.3535C104.155 38.3077 104.201 38.2619 104.292 38.1704Z" fill="#D6D1BB"/>
<path d="M104.201 38.1244C105.61 36.7972 106.791 35.2412 107.655 33.4563C107.518 33.6394 107.382 33.7767 107.2 33.9139C106.927 34.1428 106.655 34.3716 106.382 34.6004C106.064 34.8293 105.746 35.0123 105.428 35.1496C105.11 35.3327 104.792 35.47 104.474 35.5615C100.747 36.9345 96.521 36.4311 92.931 34.7377C92.1585 34.3716 91.3859 33.9597 90.7043 33.4563C88.8866 32.2206 87.3415 30.6646 86.7962 28.4678C86.6144 27.7813 86.569 27.1406 86.6144 26.4541C86.6144 26.4541 86.6144 26.4541 86.6144 26.4998C86.6144 26.5914 86.6144 26.7287 86.6144 26.8202C86.6144 26.9575 86.6144 27.049 86.6144 27.1863C86.6144 27.1406 86.6144 27.049 86.6144 27.0033C86.6144 26.9575 86.6144 26.9117 86.6144 26.8202C86.6144 26.7287 86.6144 26.6371 86.6144 26.4998V26.4541C86.6598 25.6303 86.7962 24.8522 87.0234 24.0742C83.1153 25.7218 79.8888 30.1611 82.2973 34.3716C83.3425 36.1565 85.1148 37.3006 86.978 38.0329C88.6139 38.6279 90.4316 38.994 92.2948 39.0855C89.7045 39.2686 87.1143 39.0398 84.6603 38.216C80.116 36.7057 76.7532 33.319 76.0262 28.4678C75.9807 28.1016 75.9353 27.7813 75.8898 27.4152C75.5717 24.2115 76.2079 21.9232 76.2079 21.8774C69.1188 26.5914 69.8004 33.2732 69.8004 33.2732C70.0277 35.5615 70.6639 37.7583 72.118 39.589C74.9355 43.113 79.7071 44.4859 84.0241 44.8978C90.3862 45.5386 96.8391 43.5249 102.02 39.8178C102.792 39.3601 103.519 38.7652 104.201 38.1244ZM86.7053 28.5135C86.6144 28.1932 86.6144 27.827 86.569 27.4152C86.569 27.7813 86.6144 28.1474 86.7053 28.5135Z" fill="#D6D1BB"/>
<path d="M86.6143 26.271C86.6143 26.1795 86.6143 26.088 86.6597 25.9507C86.6597 26.088 86.6597 26.1795 86.6143 26.271Z" fill="#D6D1BB"/>
<path d="M86.6144 26.5454C86.6144 26.6827 86.6144 26.7742 86.6144 26.8658C86.569 26.7742 86.6144 26.6827 86.6144 26.5454Z" fill="#D6D1BB"/>
<path d="M86.7052 28.5134C86.6143 28.1473 86.6143 27.7812 86.5688 27.415C86.5688 27.7812 86.6143 28.1473 86.7052 28.5134Z" fill="#D6D1BB"/>
<path d="M39.4445 114.783L37.5813 119.954L36.0817 116.293C35.0819 113.776 35.0365 113.684 34.5366 113.501V113.456C34.8547 113.501 35.0365 113.501 35.4 113.501C35.809 113.501 36.0817 113.501 36.4907 113.456V113.501C36.1726 113.639 36.0817 113.776 36.0817 114.005C36.0817 114.234 36.218 114.6 36.6725 115.744L37.854 118.444L39.7171 113.318L41.6712 118.444L42.3528 116.614C42.8982 115.241 43.1254 114.508 43.1254 114.096C43.1254 113.776 42.989 113.593 42.6255 113.501V113.456C42.8982 113.501 43.0799 113.501 43.398 113.501C43.7616 113.501 43.9888 113.501 44.3523 113.456V113.501C43.8525 113.776 43.5344 114.234 43.0799 115.469C42.8982 115.927 42.7164 116.385 42.5346 116.842L41.3076 119.954L39.4445 114.783Z" fill="#D6D1BB"/>
<path d="M50.5324 113.456L50.8505 114.691L50.805 114.737C50.1688 113.959 49.4417 113.684 47.9876 113.684H46.4425V116.339H47.7603C49.3054 116.339 49.7144 116.202 49.9416 115.561H49.9871V117.3H49.8962C49.7144 116.705 49.3054 116.568 47.6695 116.568H46.3971V117.208C46.3971 118.627 46.4425 119.176 46.6697 119.359C46.806 119.497 47.0333 119.497 47.7603 119.497C49.7144 119.497 50.7141 119.176 51.3049 118.353L51.3503 118.398L50.9414 119.726H45.9881C45.5791 119.726 45.1701 119.726 44.9429 119.726V119.68C45.3064 119.588 45.4427 119.359 45.5336 118.993C45.6245 118.581 45.6245 117.895 45.6245 116.064V114.966C45.6245 113.913 45.5336 113.684 45.1246 113.547V113.501H50.5324V113.456Z" fill="#D6D1BB"/>
<path d="M58.1214 119.68H53.3953C53.1681 119.68 52.5773 119.68 52.3047 119.68V119.634C52.6682 119.542 52.8954 119.359 52.9409 118.947C53.0318 118.535 53.0318 117.849 53.0318 115.973V114.828C53.0318 113.822 52.9409 113.593 52.4865 113.455V113.41C52.7591 113.455 52.9409 113.455 53.3044 113.455C53.668 113.455 53.9406 113.455 54.3042 113.41V113.455C53.8498 113.547 53.7589 113.822 53.7589 114.828V116.064C53.8043 118.81 53.8043 118.81 53.8952 119.085C54.0315 119.405 54.3042 119.497 55.0767 119.497C56.1674 119.497 57.0762 119.314 57.6215 118.993C57.8487 118.856 58.0305 118.673 58.3032 118.398L58.3486 118.444L58.1214 119.68Z" fill="#D6D1BB"/>
<path d="M64.8924 119.68H60.1663C59.9391 119.68 59.3483 119.68 59.0757 119.68V119.634C59.4392 119.542 59.6664 119.359 59.7119 118.947C59.8028 118.535 59.8028 117.849 59.8028 115.973V114.828C59.8028 113.822 59.7119 113.593 59.2575 113.455V113.41C59.5301 113.455 59.7119 113.455 60.0754 113.455C60.439 113.455 60.7116 113.455 61.0752 113.41V113.455C60.6208 113.547 60.5299 113.822 60.5299 114.828V116.064C60.5753 118.81 60.5753 118.81 60.6662 119.085C60.8025 119.405 61.0752 119.497 61.8477 119.497C62.9384 119.497 63.8472 119.314 64.3925 118.993C64.6197 118.856 64.8015 118.673 65.0742 118.398L65.1196 118.444L64.8924 119.68Z" fill="#D6D1BB"/>
<path d="M68.4374 113.456C69.8007 113.456 70.5732 113.547 71.0277 113.73C71.6639 114.005 71.982 114.417 71.982 114.966C71.982 115.424 71.7093 115.835 71.2094 116.064C70.9368 116.202 70.6187 116.293 69.9825 116.385C70.755 116.476 71.0731 116.522 71.4366 116.659C72.1183 116.934 72.5273 117.437 72.5273 118.032C72.5273 118.581 72.1183 119.131 71.3912 119.405C70.8913 119.588 70.3006 119.68 69.3917 119.68C69.2099 119.68 68.7555 119.68 68.2102 119.68C68.1193 119.68 67.9375 119.68 67.7558 119.68C67.5285 119.68 67.4831 119.68 67.3468 119.68H67.0287C66.7106 119.68 66.0744 119.68 65.8926 119.726V119.68C66.2561 119.588 66.4379 119.405 66.5288 118.993C66.6197 118.581 66.6197 117.895 66.6197 116.064V114.966C66.6197 113.913 66.5288 113.684 66.0744 113.547V113.501H68.4374V113.456ZM68.6646 116.293C69.6644 116.293 70.1642 116.202 70.5732 115.881C70.8459 115.652 70.9822 115.332 70.9822 114.92C70.9822 114.417 70.8004 114.051 70.3915 113.867C70.0279 113.684 69.5735 113.639 68.5283 113.639H67.3922V116.293H68.6646ZM67.4376 117.346C67.4376 118.307 67.4831 118.81 67.4831 118.902C67.5285 119.268 67.6649 119.405 68.0284 119.451C68.2102 119.497 68.6192 119.497 69.2099 119.497C70.1188 119.497 70.5278 119.451 70.8913 119.222C71.3003 118.993 71.573 118.536 71.573 118.078C71.573 117.575 71.3003 117.117 70.8459 116.842C70.4369 116.568 69.8007 116.522 68.5283 116.522H67.4376V117.346Z" fill="#D6D1BB"/>
<path d="M79.1163 113.456L79.4344 114.691L79.389 114.737C78.7528 113.959 78.0257 113.684 76.5715 113.684H75.0264V116.339H76.3443C77.8894 116.339 78.2983 116.202 78.5256 115.561H78.571V117.3H78.5256C78.3438 116.705 77.9348 116.568 76.2989 116.568H75.0264V117.208C75.0264 118.627 75.0719 119.176 75.2991 119.359C75.4354 119.497 75.6626 119.497 76.3897 119.497C78.3438 119.497 79.3435 119.176 79.9343 118.353L79.9797 118.398L79.5708 119.726H74.6175C74.2085 119.726 73.7995 119.726 73.5723 119.726V119.68C73.9358 119.588 74.0721 119.359 74.163 118.993C74.2539 118.581 74.2539 117.895 74.2539 116.064V114.966C74.2539 113.913 74.163 113.684 73.754 113.547V113.501H79.1163V113.456Z" fill="#D6D1BB"/>
<path d="M82.8881 119.68C82.5246 119.634 82.2519 119.634 81.7975 119.634C81.3885 119.634 81.2067 119.634 80.9341 119.68V119.634C81.4794 119.451 81.5248 119.222 81.5248 115.973V114.828C81.5248 113.822 81.434 113.593 81.1159 113.455V113.41C81.3431 113.455 81.5248 113.455 81.8429 113.455C82.161 113.455 82.3883 113.455 82.7064 113.41V113.455C82.3883 113.547 82.2974 113.822 82.2974 114.828V115.973C82.2974 119.222 82.3428 119.451 82.8881 119.634V119.68Z" fill="#D6D1BB"/>
<path d="M84.7967 114.142V116.293C84.7967 118.993 84.8875 119.451 85.5692 119.634V119.68C85.0239 119.634 84.8421 119.634 84.6149 119.634C84.3422 119.634 84.115 119.634 83.7515 119.68V119.634C84.0241 119.588 84.1605 119.497 84.2968 119.268C84.524 118.856 84.5694 118.398 84.5694 116.293V114.874C84.5694 113.913 84.4786 113.684 83.9332 113.501V113.456C84.2059 113.501 84.3877 113.501 84.7058 113.501C85.0239 113.501 85.2056 113.501 85.4783 113.456L89.8408 118.353V116.43C89.8408 115.698 89.7954 114.874 89.75 114.462C89.7045 114.142 89.5682 113.867 89.3864 113.73C89.2955 113.684 89.2501 113.639 89.0683 113.547V113.501C89.341 113.547 89.5227 113.547 89.8408 113.547C90.2044 113.547 90.4316 113.547 90.7952 113.501V113.547C90.1135 113.822 90.0681 113.959 90.0681 116.659V120L84.7967 114.142Z" fill="#D6D1BB"/>
<path d="M97.6117 115.057L97.5663 115.012C97.2936 114.096 96.3393 113.456 95.2033 113.456C93.6127 113.456 92.613 114.645 92.613 116.522C92.613 117.437 92.8402 118.169 93.2946 118.719C93.7945 119.268 94.5216 119.588 95.3396 119.588C96.0212 119.588 96.7029 119.314 96.9301 118.947C97.021 118.81 97.0664 118.581 97.0664 118.215V117.62C97.0664 117.071 96.9755 116.842 96.6574 116.705C96.5211 116.659 96.3848 116.613 95.9758 116.522V116.476C96.2939 116.476 96.612 116.522 97.1573 116.522C97.7935 116.522 98.1571 116.522 98.5206 116.522V116.568C97.9753 116.751 97.9753 116.796 97.9753 117.758V118.947C97.2482 119.497 96.2939 119.817 95.3396 119.817C93.2492 119.817 91.6587 118.444 91.6587 116.568C91.6587 114.645 93.1583 113.272 95.2941 113.272C96.2484 113.272 97.3845 113.593 97.9753 114.096L97.6117 115.057Z" fill="#D6D1BB"/>
<path d="M103.383 116.888C103.383 118.169 103.428 118.948 103.565 119.268C103.656 119.451 103.746 119.588 104.019 119.634V119.68C103.61 119.634 103.337 119.634 102.883 119.634C102.429 119.634 102.292 119.634 101.974 119.68V119.634C102.338 119.542 102.474 119.359 102.565 118.948C102.656 118.536 102.656 117.849 102.656 116.018V114.874C102.656 113.867 102.565 113.639 102.156 113.501V113.456H104.882C106.473 113.456 107.2 113.593 107.655 113.959C107.973 114.234 108.154 114.554 108.154 114.966C108.154 115.515 107.791 116.018 107.246 116.247C106.927 116.385 106.609 116.43 105.973 116.476C107.155 116.796 107.518 117.117 107.927 118.307C108.291 119.359 108.472 119.634 108.881 119.68V119.726C108.609 119.68 108.427 119.68 108.109 119.68C107.836 119.68 107.7 119.68 107.518 119.726C107.382 119.451 107.291 119.314 106.973 118.261C106.655 117.3 106.291 116.842 105.791 116.659C105.564 116.568 105.155 116.568 104.519 116.568H103.428V116.888H103.383ZM104.701 116.293C105.791 116.293 106.2 116.202 106.609 115.927C106.882 115.698 107.064 115.332 107.064 114.92C107.064 114.462 106.882 114.051 106.518 113.913C106.155 113.776 105.7 113.684 104.837 113.684H103.383V116.339H104.701V116.293Z" fill="#D6D1BB"/>
<path d="M115.244 113.456L115.562 114.691L115.516 114.737C114.88 113.959 114.153 113.684 112.699 113.684H111.154V116.339H112.472C114.017 116.339 114.426 116.202 114.653 115.561H114.698V117.3H114.653C114.471 116.705 114.062 116.568 112.426 116.568H111.154V117.208C111.154 118.627 111.199 119.176 111.427 119.359C111.563 119.497 111.79 119.497 112.517 119.497C114.471 119.497 115.471 119.176 116.062 118.353L116.107 118.398L115.698 119.726H110.745C110.336 119.726 109.927 119.726 109.7 119.726V119.68C110.063 119.588 110.2 119.359 110.29 118.993C110.381 118.581 110.381 117.895 110.381 116.064V114.966C110.381 113.913 110.29 113.684 109.881 113.547V113.501H115.244V113.456Z" fill="#D6D1BB"/>
<path d="M122.787 114.92L122.742 114.874C122.696 114.096 121.651 113.456 120.333 113.456C119.833 113.456 119.47 113.547 119.197 113.776C118.879 114.005 118.697 114.371 118.697 114.691C118.697 115.332 119.152 115.652 120.288 115.927L121.015 116.064C121.924 116.247 122.424 116.43 122.787 116.705C123.06 116.934 123.242 117.346 123.242 117.758C123.242 118.902 122.06 119.771 120.561 119.771C119.47 119.771 118.243 119.451 117.243 118.947L117.652 117.849L117.698 117.895C117.743 118.261 117.879 118.536 118.152 118.81C118.697 119.268 119.606 119.588 120.515 119.588C121.651 119.588 122.424 118.993 122.424 118.169C122.424 117.803 122.242 117.483 121.924 117.3C121.697 117.163 121.378 117.071 120.833 116.934L119.97 116.751C119.106 116.522 118.697 116.385 118.334 116.11C118.061 115.881 117.879 115.515 117.879 115.103C117.879 114.05 118.925 113.272 120.333 113.272C121.242 113.272 122.242 113.501 123.196 113.959L122.787 114.92Z" fill="#D6D1BB"/>
<path d="M131.376 116.614C131.376 118.444 129.831 119.863 127.831 119.863C125.786 119.863 124.287 118.444 124.287 116.568C124.287 114.691 125.832 113.318 127.831 113.318C129.876 113.273 131.376 114.691 131.376 116.614ZM125.923 114.371C125.468 114.875 125.286 115.607 125.286 116.568C125.286 117.529 125.514 118.215 125.923 118.765C126.377 119.314 127.013 119.634 127.831 119.634C129.376 119.634 130.376 118.49 130.376 116.614C130.376 115.607 130.194 114.92 129.74 114.371C129.285 113.822 128.649 113.502 127.831 113.502C127.059 113.502 126.422 113.776 125.923 114.371Z" fill="#D6D1BB"/>
<path d="M133.83 116.888C133.83 118.169 133.875 118.948 134.011 119.268C134.102 119.451 134.193 119.588 134.466 119.634V119.68C134.057 119.634 133.784 119.634 133.33 119.634C132.875 119.634 132.739 119.634 132.421 119.68V119.634C132.784 119.542 132.921 119.359 133.012 118.948C133.103 118.536 133.103 117.849 133.103 116.018V114.874C133.103 113.867 133.012 113.639 132.603 113.501V113.456H135.329C136.92 113.456 137.647 113.593 138.101 113.959C138.419 114.234 138.601 114.554 138.601 114.966C138.601 115.515 138.238 116.018 137.692 116.247C137.374 116.385 137.056 116.43 136.42 116.476C137.601 116.796 137.965 117.117 138.374 118.307C138.738 119.359 138.919 119.634 139.328 119.68V119.726C139.056 119.68 138.874 119.68 138.556 119.68C138.283 119.68 138.147 119.68 137.965 119.726C137.829 119.451 137.738 119.314 137.42 118.261C137.102 117.3 136.738 116.842 136.238 116.659C136.011 116.568 135.602 116.568 134.966 116.568H133.875V116.888H133.83ZM135.147 116.293C136.238 116.293 136.647 116.202 137.056 115.927C137.329 115.698 137.511 115.332 137.511 114.92C137.511 114.462 137.329 114.051 136.965 113.913C136.602 113.776 136.147 113.684 135.284 113.684H133.83V116.339H135.147V116.293Z" fill="#D6D1BB"/>
<path d="M141.919 119.634C142.282 119.542 142.464 119.359 142.555 118.948C142.646 118.536 142.646 117.849 142.646 115.973V114.829C142.646 114.188 142.6 113.913 142.555 113.822C142.464 113.684 142.328 113.639 142.009 113.639C141.055 113.639 140.419 113.913 139.783 114.645H139.737L140.146 113.456H145.963L146.372 114.645H146.327C145.69 113.913 145.1 113.639 144.1 113.639C143.782 113.639 143.6 113.684 143.555 113.822C143.509 113.913 143.464 114.188 143.464 114.829V115.973C143.464 117.849 143.509 118.536 143.555 118.948C143.645 119.359 143.827 119.542 144.191 119.634V119.68C143.873 119.634 143.645 119.634 143.055 119.634C142.464 119.634 142.237 119.634 141.919 119.68V119.634Z" fill="#D6D1BB"/>
<path d="M18.1318 89.2452L17.8592 89.1537C17.6319 87.5519 16.7685 86.4535 15.0871 85.5382C13.8147 84.8059 12.1333 84.4398 10.5428 84.4398C7.04369 84.4398 4.90786 86.0416 4.90786 88.6045C4.90786 90.7098 6.27115 91.8081 9.54306 92.3573L13.2694 92.9523C15.7688 93.3642 16.9048 93.7303 18.0409 94.5083C19.4042 95.4237 20.1313 96.8424 20.1313 98.4442C20.1313 100.87 18.6771 103.021 16.1778 104.302C14.4509 105.172 12.7241 105.538 10.3156 105.538C6.72558 105.538 2.81747 104.714 0 103.387L1.45418 98.9934L1.72684 99.1307C1.90861 100.961 2.90836 102.38 4.90786 103.433C6.36204 104.257 8.22521 104.714 10.0429 104.714C14.0874 104.714 16.6776 102.884 16.6776 99.9545C16.6776 98.9019 16.2686 98.0323 15.5416 97.5289C14.8145 97.0255 13.9965 96.7509 12.0424 96.4305L8.45242 95.8813C6.22571 95.5152 4.77153 95.0118 3.59001 94.2337C2.22671 93.3184 1.45418 91.7166 1.45418 90.1148C1.45418 88.0553 2.68115 86.0874 4.72609 84.9432C6.27115 84.0737 7.90711 83.7075 10.3156 83.7075C13.4512 83.7075 16.5867 84.3482 19.4497 85.5839L18.1318 89.2452Z" fill="#D6D1BB"/>
<path d="M29.1292 94.5541V95.744C29.1292 103.25 29.3564 104.211 31.1741 104.623V104.943C29.5836 104.851 28.6293 104.806 27.3569 104.806C26.0845 104.806 25.1302 104.851 23.4033 104.943V104.623C25.221 104.211 25.4483 103.25 25.4483 95.744V89.1537C25.4483 86.3162 25.4028 85.8585 25.0393 85.3093C24.8121 84.8974 24.494 84.7144 23.8123 84.4855V84.2109C25.6755 84.3025 26.6752 84.3482 27.6295 84.3482C28.7656 84.3482 29.4927 84.3025 30.7651 84.2109V84.5313C30.0835 84.7601 29.7199 84.989 29.4473 85.4924C29.22 85.9958 29.1292 86.545 29.1292 89.1994V93.7303H41.3988V89.1994C41.3988 86.3162 41.3534 85.8585 40.9898 85.3551C40.7172 84.9432 40.3991 84.7601 39.7628 84.5313V84.2109C41.6715 84.3025 42.6258 84.3482 43.5346 84.3482C44.6707 84.3482 45.4432 84.3025 46.6702 84.2109V84.5313C45.9886 84.7601 45.625 85.0347 45.3524 85.4924C45.1251 85.9958 45.0343 86.5908 45.0343 89.1994V95.7898C45.0343 103.25 45.2615 104.302 47.0792 104.668V104.989C45.4887 104.897 44.5798 104.851 43.262 104.851C41.9441 104.851 41.0353 104.897 39.263 104.989V104.668C41.0807 104.302 41.3079 103.295 41.3079 95.7898V94.5999H29.1292V94.5541Z" fill="#D6D1BB"/>
<path d="M56.7132 95.4695L55.6225 97.529C54.3501 99.8173 53.7139 101.556 53.7139 102.563C53.7139 103.57 54.4864 104.302 55.8497 104.623V104.943C54.441 104.852 53.623 104.806 52.3961 104.806C51.1691 104.806 50.3511 104.852 48.9424 104.943V104.623C50.6238 104.074 52.3052 101.831 55.5316 95.6526L61.9846 83.3872L69.619 97.529C72.8909 103.616 73.1181 103.89 74.9813 104.623V104.943C73.2545 104.852 72.2093 104.806 70.7551 104.806C69.3009 104.806 68.2557 104.852 66.3471 104.943V104.623C67.4377 104.485 67.8013 104.119 67.8013 103.341C67.8013 102.655 67.3923 101.602 66.3471 99.4512L64.3022 95.4695H56.7132ZM60.4849 88.1469L57.0767 94.6457H63.9841L60.4849 88.1469Z" fill="#D6D1BB"/>
<path d="M87.1598 84.2568C90.6589 84.2568 91.1588 84.3026 92.2948 84.4399C96.0666 84.9891 98.0661 86.5909 98.0661 89.0165C98.0661 90.481 97.2482 91.7625 95.7031 92.6778C94.976 93.0897 94.158 93.4101 92.3857 93.8677C94.7942 94.2796 95.7031 94.5085 96.6574 94.9661C98.7932 95.9272 99.9293 97.4375 99.9293 99.2224C99.9293 101.877 97.6117 103.891 93.8854 104.669C92.8402 104.852 91.0679 104.943 87.9323 104.943C87.3415 104.943 87.3415 104.943 85.2966 104.852C84.7967 104.806 83.1153 104.806 81.2067 104.806C80.1615 104.806 78.7528 104.852 76.9351 104.943V104.623C78.5256 104.302 79.1163 103.662 79.2981 102.197C79.5253 100.55 79.6162 97.529 79.6162 93.0439V89.1538C79.6162 86.3621 79.5708 85.8586 79.1618 85.3095C78.8891 84.9433 78.571 84.7603 77.7985 84.5772V84.2568H87.1598ZM86.4327 93.4558C91.6132 93.4558 94.0217 92.1286 94.0217 89.2453C94.0217 87.4147 92.9765 86.0417 91.1588 85.5383C89.9318 85.2179 88.5231 85.0806 86.0691 85.0806H83.2971V93.4558H86.4327ZM83.2971 97.4833C83.2971 97.8036 83.3425 98.4901 83.3425 99.4512C83.388 100.183 83.388 100.733 83.388 101.236C83.4334 103.662 84.1151 104.074 87.9323 104.074C90.159 104.074 91.6132 103.936 92.6584 103.57C94.6579 102.929 95.8849 101.282 95.8849 99.2681C95.8849 97.4375 94.7942 95.8814 93.0219 95.195C91.4314 94.6 89.2956 94.2796 86.4781 94.2796H83.2971V97.4833Z" fill="#D6D1BB"/>
<path d="M109.336 95.7442C109.336 103.296 109.564 104.211 111.563 104.623V104.943C110.018 104.852 109.064 104.806 107.61 104.806C106.155 104.806 105.156 104.852 103.292 104.943V104.623C105.428 104.211 105.656 103.25 105.656 95.7442V89.1538C105.656 85.4925 105.474 85.0349 103.838 84.5772V84.2568H114.88C118.47 84.2568 120.47 84.5772 121.97 85.4925C123.469 86.4078 124.287 87.6435 124.287 89.1996C124.287 90.9845 123.197 92.5405 121.333 93.3643C120.334 93.7762 119.198 94.005 116.971 94.2339C121.152 95.1492 122.015 95.8814 123.878 100.55C125.151 103.616 125.514 104.074 127.332 104.577V104.897C126.059 104.806 125.287 104.76 124.287 104.76C123.287 104.76 122.56 104.806 121.197 104.897C120.924 104.394 120.606 103.616 119.925 101.556C118.652 97.8036 117.971 96.4764 116.88 95.5611C115.88 94.7373 114.79 94.4627 112.336 94.4627H109.382V95.7442H109.336ZM112.381 93.6389C114.835 93.6389 116.153 93.5016 117.334 93.0439C118.97 92.449 119.925 90.9845 119.925 89.108C119.925 87.4605 119.107 86.1333 117.834 85.6298C116.789 85.2179 115.926 85.1264 112.699 85.1264H109.291V93.6847H112.381V93.6389Z" fill="#D6D1BB"/>
<path d="M136.602 95.4695L135.511 97.529C134.239 99.8173 133.603 101.556 133.603 102.563C133.603 103.57 134.375 104.302 135.738 104.623V104.943C134.33 104.852 133.512 104.806 132.285 104.806C131.058 104.806 130.24 104.852 128.831 104.943V104.623C130.512 104.074 132.194 101.831 135.42 95.6526L141.873 83.3872L149.508 97.529C152.78 103.616 153.007 103.89 154.87 104.623V104.943C153.143 104.852 152.098 104.806 150.644 104.806C149.19 104.806 148.144 104.852 146.236 104.943V104.623C147.326 104.485 147.69 104.119 147.69 103.341C147.69 102.655 147.281 101.602 146.236 99.4512L144.191 95.4695H136.602ZM140.419 88.1469L137.011 94.6457H143.918L140.419 88.1469Z" fill="#D6D1BB"/>
<path d="M160.233 86.9111V93.0438C160.233 102.289 160.551 103.616 163.186 104.623V104.943C161.869 104.851 161.051 104.806 159.96 104.806C158.869 104.806 158.097 104.851 156.643 104.943V104.623C157.733 104.211 158.279 103.753 158.688 102.838C159.324 101.282 159.415 100.046 159.415 93.0438V89.1537C159.415 86.2704 159.369 85.8585 158.824 85.3093C158.506 84.9432 158.051 84.7144 157.188 84.5313V84.2109C158.824 84.3025 159.687 84.3482 160.642 84.3482C161.641 84.3482 162.323 84.3025 163.186 84.2109L177.41 99.1307V93.5015C177.41 86.9111 176.865 85.2636 174.456 84.5313V84.2109C176.092 84.3025 176.956 84.3482 178.046 84.3482C179.137 84.3482 179.955 84.3025 181 84.2109V84.5313C178.683 85.2178 178.228 86.6823 178.228 93.5015V105.813L160.233 86.9111Z" fill="#D6D1BB"/>
</svg>
