<svg width="91" height="60" viewBox="0 0 91 60" fill="none" xmlns="http://www.w3.org/2000/svg">
<path d="M54.9334 11.5107C54.2271 9.06222 52.222 7.48328 50.855 5.4238C50.4221 4.76019 50.0347 3.98217 50.1259 3.20414C50.2398 2.19729 51.174 1.32773 52.1992 1.32773C53.2929 1.32773 54.1815 2.15152 54.865 3.02108C54.6372 1.64809 53.5891 0.366638 52.1992 0.0920409C50.8322 -0.182556 49.3512 0.16069 48.3031 1.07601C47.4145 1.85404 46.8905 2.99819 46.7994 4.16523C46.6171 6.70526 48.8955 8.37572 50.3765 10.092C51.3334 11.1675 52.1765 12.4947 52.1309 14.005C52.0853 15.1034 51.2195 16.1102 50.1487 16.339C48.9183 16.5908 47.8474 15.5839 47.1411 14.6915C47.369 16.0644 48.417 17.3459 49.8069 17.6205C51.174 17.8951 52.6549 17.5518 53.703 16.6365C53.7714 16.5679 53.8397 16.5221 53.9081 16.4535C55.2523 15.0576 55.4118 13.2269 54.9334 11.5107Z" fill="#27392D"/>
<path d="M55.6854 14.7832C55.6626 14.3942 55.5942 13.9823 55.5259 13.5933C55.5259 13.7077 55.5031 13.7992 55.4803 13.9136C55.2297 15.79 54.1133 17.5749 52.8829 18.9479C51.6753 20.298 50.2171 21.3964 48.645 22.3117C46.959 23.2957 45.1134 23.9822 43.359 24.8746C41.4679 25.8586 39.3718 27.0485 38.3465 28.9936C37.4123 30.7556 37.868 33.1354 39.6224 34.188C39.5313 32.4032 40.2376 30.6183 41.4907 29.3597C42.5616 28.2842 43.8603 27.7808 45.2046 27.1629C47.2324 26.2476 49.3513 25.4696 51.0829 24.028C52.5867 22.7694 53.9082 21.1676 54.7057 19.3598C54.9791 18.7648 55.1841 18.1699 55.3436 17.5292C55.5715 16.6367 55.7309 15.6985 55.6854 14.7832Z" fill="#27392D"/>
<path d="M52.2907 19.085C52.2451 19.1078 52.2223 19.1536 52.1768 19.1765C52.2223 19.1536 52.2451 19.1307 52.2907 19.085Z" fill="#27392D"/>
<path d="M52.2449 19.062C52.9512 18.3984 53.5436 17.6203 53.9765 16.7279C53.9082 16.8194 53.8398 16.8881 53.7487 16.9567C53.612 17.0711 53.4753 17.1856 53.3386 17.3C53.1791 17.4144 53.0196 17.5059 52.8601 17.5746C52.7006 17.6661 52.5411 17.7348 52.3816 17.7805C50.5133 18.467 48.3944 18.2153 46.5944 17.3686C46.2071 17.1856 45.8197 16.9796 45.478 16.7279C44.5666 16.1101 43.7919 15.332 43.5185 14.2336C43.4274 13.8904 43.4046 13.57 43.4274 13.2268C43.4274 13.2268 43.4274 13.2268 43.4274 13.2497C43.4274 13.2954 43.4274 13.3641 43.4274 13.4099C43.4274 13.4785 43.4274 13.5243 43.4274 13.5929C43.4274 13.57 43.4274 13.5243 43.4274 13.5014C43.4274 13.4785 43.4274 13.4556 43.4274 13.4099C43.4274 13.3641 43.4274 13.3183 43.4274 13.2497V13.2268C43.4502 12.8149 43.5185 12.4259 43.6324 12.0369C41.673 12.8607 40.0553 15.0803 41.2629 17.1856C41.7869 18.078 42.6755 18.6501 43.6096 19.0162C44.4299 19.3137 45.3413 19.4968 46.2754 19.5425C44.9767 19.6341 43.678 19.5196 42.4476 19.1077C40.1692 18.3526 38.4832 16.6593 38.1186 14.2336C38.0958 14.0506 38.0731 13.8904 38.0503 13.7073C37.8908 12.1055 38.2098 10.9614 38.2098 10.9385C34.6554 13.2954 34.9972 16.6364 34.9972 16.6364C35.1111 17.7805 35.4301 18.8789 36.1592 19.7942C37.5718 21.5562 39.9642 22.2427 42.1287 22.4487C45.3185 22.769 48.5538 21.7622 51.1513 19.9087C51.5386 19.6798 51.9031 19.3823 52.2449 19.062ZM43.4729 14.2565C43.4274 14.0963 43.4274 13.9133 43.4046 13.7073C43.4046 13.8904 43.4274 14.0735 43.4729 14.2565Z" fill="#27392D"/>
<path d="M43.4277 13.1353C43.4277 13.0895 43.4277 13.0437 43.4505 12.9751C43.4505 13.0437 43.4505 13.0895 43.4277 13.1353Z" fill="#27392D"/>
<path d="M43.4271 13.2725C43.4271 13.3411 43.4271 13.3869 43.4271 13.4326C43.4043 13.3869 43.4271 13.3411 43.4271 13.2725Z" fill="#27392D"/>
<path d="M43.4726 14.2567C43.4271 14.0736 43.4271 13.8906 43.4043 13.7075C43.4043 13.8906 43.4271 14.0736 43.4726 14.2567Z" fill="#27392D"/>
<path d="M19.7771 57.3914L18.843 59.9772L18.0911 58.1466C17.5898 56.888 17.567 56.8422 17.3164 56.7507V56.7278C17.4759 56.7507 17.567 56.7507 17.7493 56.7507C17.9544 56.7507 18.0911 56.7507 18.2961 56.7278V56.7507C18.1366 56.8194 18.0911 56.888 18.0911 57.0024C18.0911 57.1168 18.1594 57.2999 18.3873 57.872L18.9797 59.2221L19.9138 56.6592L20.8935 59.2221L21.2353 58.3068C21.5087 57.6203 21.6226 57.2541 21.6226 57.0482C21.6226 56.888 21.5543 56.7965 21.372 56.7507V56.7278C21.5087 56.7507 21.5999 56.7507 21.7594 56.7507C21.9416 56.7507 22.0555 56.7507 22.2378 56.7278V56.7507C21.9872 56.888 21.8277 57.1168 21.5999 57.7347C21.5087 57.9635 21.4176 58.1923 21.3265 58.4212L20.7113 59.9772L19.7771 57.3914Z" fill="#27392D"/>
<path d="M25.3367 56.7275L25.4961 57.3454L25.4734 57.3683C25.1544 56.9793 24.7898 56.842 24.0607 56.842H23.2861V58.1692H23.9468C24.7215 58.1692 24.9265 58.1005 25.0405 57.7802H25.0632V58.6497H25.0177C24.9265 58.3522 24.7215 58.2836 23.9012 58.2836H23.2633V58.604C23.2633 59.3133 23.2861 59.5879 23.4 59.6795C23.4683 59.7481 23.5823 59.7481 23.9468 59.7481C24.9265 59.7481 25.4278 59.5879 25.724 59.176L25.7468 59.1989L25.5417 59.8625H23.0582C22.8532 59.8625 22.6481 59.8625 22.5342 59.8625V59.8396C22.7165 59.7939 22.7848 59.6795 22.8304 59.4964C22.8759 59.2904 22.8759 58.9472 22.8759 58.0319V57.4827C22.8759 56.9564 22.8304 56.842 22.6253 56.7733V56.7504H25.3367V56.7275Z" fill="#27392D"/>
<path d="M29.141 59.8401H26.7714C26.6575 59.8401 26.3613 59.8401 26.2246 59.8401V59.8172C26.4069 59.7714 26.5208 59.6799 26.5436 59.4739C26.5892 59.268 26.5892 58.9247 26.5892 57.9865V57.4145C26.5892 56.911 26.5436 56.7966 26.3157 56.728V56.7051C26.4525 56.728 26.5436 56.728 26.7259 56.728C26.9081 56.728 27.0448 56.728 27.2271 56.7051V56.728C26.9993 56.7737 26.9537 56.911 26.9537 57.4145V58.0323C26.9765 59.4053 26.9765 59.4053 27.0221 59.5426C27.0904 59.7028 27.2271 59.7485 27.6145 59.7485C28.1613 59.7485 28.617 59.657 28.8904 59.4968C29.0043 59.4282 29.0954 59.3366 29.2321 59.1993L29.2549 59.2222L29.141 59.8401Z" fill="#27392D"/>
<path d="M32.5365 59.8401H30.1669C30.053 59.8401 29.7568 59.8401 29.6201 59.8401V59.8172C29.8024 59.7714 29.9163 59.6799 29.9391 59.4739C29.9847 59.268 29.9847 58.9247 29.9847 57.9865V57.4145C29.9847 56.911 29.9391 56.7966 29.7113 56.728V56.7051C29.848 56.728 29.9391 56.728 30.1214 56.728C30.3036 56.728 30.4404 56.728 30.6226 56.7051V56.728C30.3948 56.7737 30.3492 56.911 30.3492 57.4145V58.0323C30.372 59.4053 30.372 59.4053 30.4176 59.5426C30.4859 59.7028 30.6226 59.7485 31.01 59.7485C31.5568 59.7485 32.0125 59.657 32.2859 59.4968C32.3998 59.4282 32.4909 59.3366 32.6276 59.1993L32.6504 59.2222L32.5365 59.8401Z" fill="#27392D"/>
<path d="M34.313 56.7275C34.9966 56.7275 35.3839 56.7733 35.6117 56.8648C35.9307 57.0021 36.0902 57.2081 36.0902 57.4827C36.0902 57.7115 35.9535 57.9175 35.7029 58.0319C35.5662 58.1005 35.4067 58.1463 35.0877 58.1921C35.475 58.2378 35.6345 58.2607 35.8168 58.3294C36.1586 58.4667 36.3636 58.7184 36.3636 59.0158C36.3636 59.2904 36.1586 59.565 35.794 59.7023C35.5434 59.7939 35.2472 59.8396 34.7915 59.8396C34.7004 59.8396 34.4725 59.8396 34.1991 59.8396C34.1535 59.8396 34.0624 59.8396 33.9713 59.8396C33.8573 59.8396 33.8346 59.8396 33.7662 59.8396H33.6067C33.4472 59.8396 33.1282 59.8396 33.0371 59.8625V59.8396C33.2194 59.7939 33.3105 59.7023 33.3561 59.4964C33.4017 59.2904 33.4017 58.9472 33.4017 58.0319V57.4827C33.4017 56.9564 33.3561 56.842 33.1282 56.7733V56.7504H34.313V56.7275ZM34.427 58.1463C34.9282 58.1463 35.1788 58.1005 35.3839 57.9403C35.5206 57.8259 35.589 57.6657 35.589 57.4598C35.589 57.2081 35.4978 57.025 35.2928 56.9335C35.1105 56.842 34.8826 56.8191 34.3586 56.8191H33.789V58.1463H34.427ZM33.8118 58.6726C33.8118 59.1531 33.8346 59.4049 33.8346 59.4506C33.8573 59.6337 33.9257 59.7023 34.108 59.7252C34.1991 59.7481 34.4042 59.7481 34.7004 59.7481C35.1561 59.7481 35.3611 59.7252 35.5434 59.6108C35.7484 59.4964 35.8852 59.2676 35.8852 59.0387C35.8852 58.787 35.7484 58.5582 35.5206 58.4209C35.3155 58.2836 34.9966 58.2607 34.3586 58.2607H33.8118V58.6726Z" fill="#27392D"/>
<path d="M39.6674 56.7275L39.8269 57.3454L39.8041 57.3683C39.4851 56.9793 39.1206 56.842 38.3915 56.842H37.6168V58.1692H38.2775C39.0522 58.1692 39.2573 58.1005 39.3712 57.7802H39.394V58.6497H39.3712C39.28 58.3522 39.075 58.2836 38.2548 58.2836H37.6168V58.604C37.6168 59.3133 37.6396 59.5879 37.7535 59.6795C37.8219 59.7481 37.9358 59.7481 38.3003 59.7481C39.2801 59.7481 39.7813 59.5879 40.0775 59.176L40.1003 59.1989L39.8952 59.8625H37.4117C37.2067 59.8625 37.0016 59.8625 36.8877 59.8625V59.8396C37.07 59.7939 37.1383 59.6795 37.1839 59.4964C37.2295 59.2904 37.2295 58.9472 37.2295 58.0319V57.4827C37.2295 56.9564 37.1839 56.842 36.9788 56.7733V56.7504H39.6674V56.7275Z" fill="#27392D"/>
<path d="M41.5588 59.8401C41.3766 59.8172 41.2398 59.8172 41.012 59.8172C40.8069 59.8172 40.7158 59.8172 40.5791 59.8401V59.8172C40.8525 59.7256 40.8753 59.6112 40.8753 57.9865V57.4145C40.8753 56.911 40.8297 56.7966 40.6702 56.728V56.7051C40.7842 56.728 40.8753 56.728 41.0348 56.728C41.1943 56.728 41.3082 56.728 41.4677 56.7051V56.728C41.3082 56.7737 41.2626 56.911 41.2626 57.4145V57.9865C41.2626 59.6112 41.2854 59.7256 41.5588 59.8172V59.8401Z" fill="#27392D"/>
<path d="M42.5162 57.0708V58.1463C42.5162 59.4964 42.5618 59.7252 42.9036 59.8168V59.8396C42.6301 59.8168 42.539 59.8168 42.4251 59.8168C42.2884 59.8168 42.1745 59.8168 41.9922 59.8396V59.8168C42.1289 59.7939 42.1972 59.7481 42.2656 59.6337C42.3795 59.4277 42.4023 59.1989 42.4023 58.1463V57.4369C42.4023 56.9564 42.3567 56.842 42.0833 56.7504V56.7275C42.22 56.7504 42.3112 56.7504 42.4707 56.7504C42.6302 56.7504 42.7213 56.7504 42.858 56.7275L45.0453 59.176V58.2149C45.0453 57.8488 45.0225 57.4369 44.9997 57.231C44.9769 57.0708 44.9086 56.9335 44.8174 56.8648C44.7719 56.842 44.7491 56.8191 44.658 56.7733V56.7504C44.7947 56.7733 44.8858 56.7733 45.0453 56.7733C45.2276 56.7733 45.3415 56.7733 45.5238 56.7504V56.7733C45.182 56.9106 45.1592 56.9793 45.1592 58.3294V59.9998L42.5162 57.0708Z" fill="#27392D"/>
<path d="M48.9408 57.5287L48.918 57.5058C48.7813 57.0481 48.3028 56.7278 47.7332 56.7278C46.9358 56.7278 46.4345 57.3227 46.4345 58.2609C46.4345 58.7186 46.5484 59.0847 46.7763 59.3593C47.0269 59.6339 47.3915 59.7941 47.8016 59.7941C48.1434 59.7941 48.4851 59.6568 48.599 59.4737C48.6446 59.4051 48.6674 59.2907 48.6674 59.1076V58.8101C48.6674 58.5355 48.6218 58.4211 48.4623 58.3525C48.394 58.3296 48.3256 58.3067 48.1206 58.2609V58.238C48.2801 58.238 48.4395 58.2609 48.713 58.2609C49.0319 58.2609 49.2142 58.2609 49.3965 58.2609V58.2838C49.1231 58.3753 49.1231 58.3982 49.1231 58.8788V59.4737C48.7585 59.7483 48.2801 59.9085 47.8016 59.9085C46.7535 59.9085 45.9561 59.222 45.9561 58.2838C45.9561 57.3227 46.7079 56.6362 47.7788 56.6362C48.2573 56.6362 48.8269 56.7964 49.1231 57.0481L48.9408 57.5287Z" fill="#27392D"/>
<path d="M51.8342 58.4438C51.8342 59.0845 51.857 59.4735 51.9254 59.6337C51.971 59.7252 52.0165 59.7939 52.1532 59.8168V59.8396C51.9482 59.8168 51.8115 59.8168 51.5836 59.8168C51.3558 59.8168 51.2874 59.8168 51.1279 59.8396V59.8168C51.3102 59.771 51.3786 59.6795 51.4241 59.4735C51.4697 59.2676 51.4697 58.9243 51.4697 58.009V57.4369C51.4697 56.9335 51.4241 56.8191 51.2191 56.7504V56.7275H52.5861C53.3836 56.7275 53.7481 56.7962 53.976 56.9793C54.1355 57.1166 54.2266 57.2767 54.2266 57.4827C54.2266 57.7573 54.0443 58.009 53.7709 58.1234C53.6114 58.1921 53.4519 58.2149 53.133 58.2378C53.7253 58.398 53.9076 58.5582 54.1127 59.1531C54.295 59.6795 54.3861 59.8168 54.5912 59.8396V59.8625C54.4544 59.8396 54.3633 59.8396 54.2038 59.8396C54.0671 59.8396 53.9988 59.8396 53.9076 59.8625C53.8393 59.7252 53.7937 59.6566 53.6342 59.1303C53.4747 58.6497 53.2924 58.4209 53.0418 58.3294C52.9279 58.2836 52.7228 58.2836 52.4039 58.2836H51.857V58.4438H51.8342ZM52.495 58.1463C53.0418 58.1463 53.2469 58.1005 53.4519 57.9632C53.5886 57.8488 53.6798 57.6657 53.6798 57.4598C53.6798 57.231 53.5886 57.025 53.4064 56.9564C53.2241 56.8877 52.9962 56.842 52.5633 56.842H51.8342V58.1692H52.495V58.1463Z" fill="#27392D"/>
<path d="M57.7816 56.7275L57.9411 57.3454L57.9183 57.3683C57.5994 56.9793 57.2348 56.842 56.5057 56.842H55.7311V58.1692H56.3918C57.1665 58.1692 57.3715 58.1005 57.4854 57.7802H57.5082V58.6497H57.4854C57.3943 58.3522 57.1893 58.2836 56.369 58.2836H55.7311V58.604C55.7311 59.3133 55.7538 59.5879 55.8678 59.6795C55.9361 59.7481 56.05 59.7481 56.4146 59.7481C57.3943 59.7481 57.8956 59.5879 58.1918 59.176L58.2145 59.1989L58.0095 59.8625H55.526C55.3209 59.8625 55.1159 59.8625 55.002 59.8625V59.8396C55.1842 59.7939 55.2526 59.6795 55.2981 59.4964C55.3437 59.2904 55.3437 58.9472 55.3437 58.0319V57.4827C55.3437 56.9564 55.2981 56.842 55.0931 56.7733V56.7504H57.7816V56.7275Z" fill="#27392D"/>
<path d="M61.5639 57.46L61.5411 57.4371C61.5183 57.0481 60.9943 56.7278 60.3335 56.7278C60.0829 56.7278 59.9006 56.7735 59.7639 56.8879C59.6044 57.0024 59.5133 57.1854 59.5133 57.3456C59.5133 57.666 59.7411 57.8262 60.3107 57.9635L60.6753 58.0321C61.131 58.1236 61.3816 58.2152 61.5639 58.3525C61.7006 58.4669 61.7917 58.6728 61.7917 58.8788C61.7917 59.4508 61.1993 59.8856 60.4474 59.8856C59.9006 59.8856 59.2854 59.7254 58.7842 59.4737L58.9892 58.9245L59.012 58.9474C59.0348 59.1305 59.1032 59.2678 59.2399 59.4051C59.5133 59.6339 59.969 59.7941 60.4246 59.7941C60.9943 59.7941 61.3816 59.4966 61.3816 59.0847C61.3816 58.9017 61.2904 58.7415 61.131 58.6499C61.017 58.5813 60.8575 58.5355 60.5841 58.4669L60.1512 58.3753C59.7183 58.2609 59.5133 58.1923 59.331 58.055C59.1943 57.9406 59.1032 57.7575 59.1032 57.5516C59.1032 57.0252 59.6272 56.6362 60.3335 56.6362C60.7892 56.6362 61.2904 56.7506 61.7689 56.9795L61.5639 57.46Z" fill="#27392D"/>
<path d="M65.8698 58.3068C65.8698 59.2221 65.0951 59.9315 64.0926 59.9315C63.0673 59.9315 62.3154 59.2221 62.3154 58.2839C62.3154 57.3457 63.0901 56.6592 64.0926 56.6592C65.1179 56.6363 65.8698 57.3457 65.8698 58.3068ZM63.1357 57.1855C62.9078 57.4373 62.8167 57.8034 62.8167 58.2839C62.8167 58.7645 62.9306 59.1077 63.1357 59.3823C63.3635 59.6569 63.6825 59.8171 64.0926 59.8171C64.8673 59.8171 65.3685 59.245 65.3685 58.3068C65.3685 57.8034 65.2774 57.4601 65.0496 57.1855C64.8217 56.9109 64.5027 56.7508 64.0926 56.7508C63.7053 56.7508 63.3863 56.8881 63.1357 57.1855Z" fill="#27392D"/>
<path d="M67.0999 58.4438C67.0999 59.0845 67.1227 59.4735 67.191 59.6337C67.2366 59.7252 67.2821 59.7939 67.4189 59.8168V59.8396C67.2138 59.8168 67.0771 59.8168 66.8492 59.8168C66.6214 59.8168 66.553 59.8168 66.3936 59.8396V59.8168C66.5758 59.771 66.6442 59.6795 66.6897 59.4735C66.7353 59.2676 66.7353 58.9243 66.7353 58.009V57.4369C66.7353 56.9335 66.6898 56.8191 66.4847 56.7504V56.7275H67.8518C68.6492 56.7275 69.0138 56.7962 69.2416 56.9793C69.4011 57.1166 69.4922 57.2767 69.4922 57.4827C69.4922 57.7573 69.31 58.009 69.0365 58.1234C68.8771 58.1921 68.7176 58.2149 68.3986 58.2378C68.991 58.398 69.1733 58.5582 69.3783 59.1531C69.5606 59.6795 69.6517 59.8168 69.8568 59.8396V59.8625C69.7201 59.8396 69.6289 59.8396 69.4694 59.8396C69.3327 59.8396 69.2644 59.8396 69.1732 59.8625C69.1049 59.7252 69.0593 59.6566 68.8998 59.1303C68.7403 58.6497 68.5581 58.4209 68.3074 58.3294C68.1935 58.2836 67.9885 58.2836 67.6695 58.2836H67.1227V58.4438H67.0999ZM67.7606 58.1463C68.3074 58.1463 68.5125 58.1005 68.7176 57.9632C68.8543 57.8488 68.9454 57.6657 68.9454 57.4598C68.9454 57.231 68.8543 57.025 68.672 56.9564C68.4897 56.8877 68.2619 56.842 67.829 56.842H67.0999V58.1692H67.7606V58.1463Z" fill="#27392D"/>
<path d="M71.1561 59.8168C71.3384 59.771 71.4296 59.6795 71.4751 59.4735C71.5207 59.2676 71.5207 58.9243 71.5207 57.9861V57.414C71.5207 57.0937 71.4979 56.9564 71.4751 56.9106C71.4296 56.842 71.3612 56.8191 71.2017 56.8191C70.7232 56.8191 70.4043 56.9564 70.0853 57.3225H70.0625L70.2676 56.7275H73.1839L73.389 57.3225H73.3662C73.0472 56.9564 72.751 56.8191 72.2498 56.8191C72.0903 56.8191 71.9992 56.842 71.9764 56.9106C71.9536 56.9564 71.9308 57.0937 71.9308 57.414V57.9861C71.9308 58.9243 71.9536 59.2676 71.9764 59.4735C72.022 59.6795 72.1131 59.771 72.2954 59.8168V59.8396C72.1359 59.8168 72.022 59.8168 71.7258 59.8168C71.4296 59.8168 71.3156 59.8168 71.1561 59.8396V59.8168Z" fill="#27392D"/>
<path d="M9.09095 44.6224L8.95424 44.5766C8.84032 43.7757 8.40742 43.2265 7.5644 42.7688C6.92644 42.4027 6.08342 42.2196 5.28597 42.2196C3.53157 42.2196 2.46071 43.0206 2.46071 44.302C2.46071 45.3546 3.14424 45.9038 4.78471 46.1784L6.65303 46.4759C7.90616 46.6819 8.47577 46.8649 9.04538 47.2539C9.72891 47.7116 10.0935 48.421 10.0935 49.2219C10.0935 50.4347 9.36436 51.5102 8.11122 52.1509C7.24542 52.5857 6.37961 52.7688 5.17204 52.7688C3.37208 52.7688 1.41263 52.3569 0 51.6932L0.729099 49.4965L0.865805 49.5651C0.956942 50.4804 1.4582 51.1898 2.46071 51.7161C3.18981 52.128 4.12396 52.3569 5.03534 52.3569C7.06314 52.3569 8.36185 51.4415 8.36185 49.977C8.36185 49.4507 8.15679 49.0159 7.79224 48.7642C7.42769 48.5125 7.01758 48.3752 6.03785 48.215L4.23789 47.9404C3.12145 47.7574 2.39236 47.5056 1.79996 47.1166C1.11643 46.659 0.729099 45.8581 0.729099 45.0571C0.729099 44.0274 1.34428 43.0434 2.36957 42.4714C3.14424 42.0366 3.96447 41.8535 5.17204 41.8535C6.74416 41.8535 8.31628 42.1739 9.75169 42.7917L9.09095 44.6224Z" fill="#27392D"/>
<path d="M14.6052 47.277V47.872C14.6052 51.6248 14.7191 52.1054 15.6305 52.3113V52.4715C14.833 52.4257 14.3546 52.4029 13.7166 52.4029C13.0787 52.4029 12.6002 52.4257 11.7344 52.4715V52.3113C12.6457 52.1054 12.7597 51.6248 12.7597 47.872V44.5768C12.7597 43.1581 12.7369 42.9293 12.5546 42.6547C12.4407 42.4487 12.2812 42.3572 11.9394 42.2428V42.1055C12.8736 42.1512 13.3748 42.1741 13.8533 42.1741C14.4229 42.1741 14.7875 42.1512 15.4254 42.1055V42.2656C15.0837 42.3801 14.9014 42.4945 14.7647 42.7462C14.6508 42.9979 14.6052 43.2725 14.6052 44.5997V46.8652H20.757V44.5997C20.757 43.1581 20.7342 42.9293 20.5519 42.6775C20.4152 42.4716 20.2557 42.3801 19.9367 42.2656V42.1055C20.8937 42.1512 21.3722 42.1741 21.8278 42.1741C22.3974 42.1741 22.7848 42.1512 23.4 42.1055V42.2656C23.0582 42.3801 22.8759 42.5174 22.7392 42.7462C22.6253 42.9979 22.5797 43.2954 22.5797 44.5997V47.8949C22.5797 51.6248 22.6936 52.1511 23.605 52.3342V52.4944C22.8076 52.4486 22.3519 52.4257 21.6911 52.4257C21.0304 52.4257 20.5747 52.4486 19.6861 52.4944V52.3342C20.5975 52.1511 20.7114 51.6477 20.7114 47.8949V47.2999H14.6052V47.277Z" fill="#27392D"/>
<path d="M28.4352 47.7345L27.8884 48.7642C27.2504 49.9084 26.9314 50.778 26.9314 51.2814C26.9314 51.7848 27.3188 52.1509 28.0023 52.3111V52.4713C27.296 52.4255 26.8858 52.4027 26.2707 52.4027C25.6555 52.4027 25.2454 52.4255 24.5391 52.4713V52.3111C25.3821 52.0365 26.2251 50.9153 27.8428 47.826L31.0782 41.6934L34.9059 48.7642C36.5464 51.8077 36.6603 51.945 37.5945 52.3111V52.4713C36.7287 52.4255 36.2046 52.4027 35.4755 52.4027C34.7464 52.4027 34.2224 52.4255 33.2655 52.4713V52.3111C33.8123 52.2425 33.9946 52.0594 33.9946 51.6704C33.9946 51.3272 33.7895 50.8008 33.2655 49.7253L32.2402 47.7345H28.4352ZM30.3263 44.0732L28.6175 47.3226H32.0807L30.3263 44.0732Z" fill="#27392D"/>
<path d="M43.7007 42.1279C45.4551 42.1279 45.7057 42.1508 46.2753 42.2195C48.1664 42.4941 49.1689 43.295 49.1689 44.5078C49.1689 45.24 48.7588 45.8808 47.9842 46.3384C47.6196 46.5444 47.2095 46.7046 46.3209 46.9334C47.5285 47.1393 47.9841 47.2537 48.4626 47.4826C49.5335 47.9631 50.1031 48.7183 50.1031 49.6107C50.1031 50.9379 48.9411 51.9448 47.0728 52.3338C46.5487 52.4253 45.6601 52.4711 44.088 52.4711C43.7918 52.4711 43.7918 52.4711 42.7665 52.4253C42.5159 52.4024 41.6729 52.4024 40.7159 52.4024C40.1919 52.4024 39.4856 52.4253 38.5742 52.4711V52.3109C39.3717 52.1507 39.6679 51.8304 39.759 51.0981C39.8729 50.2743 39.9185 48.764 39.9185 46.5215V44.5764C39.9185 43.1806 39.8957 42.9288 39.6906 42.6542C39.5539 42.4712 39.3945 42.3796 39.0071 42.2881V42.1279H43.7007ZM43.3361 46.7274C45.9336 46.7274 47.1411 46.0638 47.1411 44.6222C47.1411 43.7069 46.6171 43.0204 45.7057 42.7687C45.0905 42.6085 44.3842 42.5398 43.1539 42.5398H41.764V46.7274H43.3361ZM41.764 48.7411C41.764 48.9013 41.7868 49.2446 41.7868 49.7251C41.8096 50.0912 41.8096 50.3658 41.8096 50.6176C41.8324 51.8304 42.1741 52.0363 44.088 52.0363C45.2045 52.0363 45.9336 51.9677 46.4576 51.7846C47.4601 51.4642 48.0753 50.6404 48.0753 49.6336C48.0753 48.7183 47.5285 47.9402 46.6399 47.597C45.8424 47.2995 44.7716 47.1393 43.3589 47.1393H41.764V48.7411Z" fill="#27392D"/>
<path d="M54.8194 47.8716C54.8194 51.6473 54.9333 52.105 55.9358 52.3109V52.4711C55.1611 52.4253 54.6827 52.4024 53.9536 52.4024C53.2245 52.4024 52.7232 52.4253 51.7891 52.4711V52.3109C52.8599 52.105 52.9738 51.6244 52.9738 47.8716V44.5764C52.9738 42.7458 52.8827 42.5169 52.0625 42.2881V42.1279H57.5991C59.399 42.1279 60.4015 42.2881 61.1534 42.7458C61.9053 43.2034 62.3154 43.8213 62.3154 44.5993C62.3154 45.4917 61.7686 46.2698 60.8344 46.6817C60.3332 46.8876 59.7636 47.002 58.6472 47.1164C60.7433 47.5741 61.1762 47.9402 62.1104 50.2743C62.7483 51.8075 62.9306 52.0363 63.842 52.288V52.4482C63.204 52.4024 62.8167 52.3796 62.3154 52.3796C61.8142 52.3796 61.4496 52.4024 60.7661 52.4482C60.6294 52.1965 60.4699 51.8075 60.1281 50.7777C59.4902 48.9013 59.1484 48.2377 58.6016 47.7801C58.1003 47.3682 57.5535 47.2309 56.3231 47.2309H54.8422V47.8716H54.8194ZM56.3459 46.819C57.5763 46.819 58.237 46.7503 58.8294 46.5215C59.6497 46.224 60.1281 45.4917 60.1281 44.5535C60.1281 43.7297 59.718 43.0661 59.0801 42.8144C58.556 42.6085 58.1231 42.5627 56.5054 42.5627H54.7966V46.8418H56.3459V46.819Z" fill="#27392D"/>
<path d="M68.4899 47.7345L67.943 48.7642C67.3051 49.9084 66.9861 50.778 66.9861 51.2814C66.9861 51.7848 67.3734 52.1509 68.057 52.3111V52.4713C67.3507 52.4255 66.9405 52.4027 66.3254 52.4027C65.7102 52.4027 65.3001 52.4255 64.5938 52.4713V52.3111C65.4368 52.0365 66.2798 50.9153 67.8975 47.826L71.1328 41.6934L74.9606 48.7642C76.6011 51.8077 76.715 51.945 77.6492 52.3111V52.4713C76.7834 52.4255 76.2593 52.4027 75.5302 52.4027C74.8011 52.4027 74.2771 52.4255 73.3201 52.4713V52.3111C73.867 52.2425 74.0492 52.0594 74.0492 51.6704C74.0492 51.3272 73.8442 50.8008 73.3201 49.7253L72.2949 47.7345H68.4899ZM70.4038 44.0732L68.6949 47.3226H72.1581L70.4038 44.0732Z" fill="#27392D"/>
<path d="M80.3371 43.4556V46.5219C80.3371 51.1443 80.4966 51.8079 81.8181 52.3113V52.4715C81.1573 52.4257 80.7472 52.4029 80.2004 52.4029C79.6535 52.4029 79.2662 52.4257 78.5371 52.4715V52.3113C79.0839 52.1054 79.3573 51.8765 79.5624 51.4189C79.8814 50.6409 79.927 50.023 79.927 46.5219V44.5768C79.927 43.1352 79.9042 42.9293 79.6308 42.6547C79.4713 42.4716 79.2434 42.3572 78.8105 42.2656V42.1055C79.6308 42.1512 80.0637 42.1741 80.5421 42.1741C81.0434 42.1741 81.3852 42.1512 81.8181 42.1055L88.9496 49.5654V46.7507C88.9496 43.4556 88.6761 42.6318 87.4686 42.2656V42.1055C88.2888 42.1512 88.7217 42.1741 89.2685 42.1741C89.8154 42.1741 90.2255 42.1512 90.7495 42.1055V42.2656C89.5875 42.6089 89.3597 43.3412 89.3597 46.7507V52.9063L80.3371 43.4556Z" fill="#27392D"/>
</svg>
