<svg width="20" height="20" viewBox="0 0 20 20" fill="none" xmlns="http://www.w3.org/2000/svg">
<circle cx="10" cy="10" r="9" stroke="#D6D1BB"/>
<path d="M11.125 6H8.875C7.28401 6 6.48851 6 5.99426 6.5021C5.5 7.00421 5.5 7.81233 5.5 9.42857V10.5714C5.5 12.1877 5.5 12.9958 5.99426 13.4979C6.48851 14 7.28401 14 8.875 14H11.125C12.716 14 13.5115 14 14.0057 13.4979C14.5 12.9958 14.5 12.1877 14.5 10.5714V9.42857C14.5 7.81233 14.5 7.00421 14.0057 6.5021C13.5115 6 12.716 6 11.125 6Z" stroke="#D6D1BB"/>
<path d="M7.5 8H9" stroke="#D6D1BB" stroke-linecap="round"/>
<path d="M13.5 12H12.5C11.9477 12 11.5 11.5523 11.5 11C11.5 10.4477 11.9477 10 12.5 10H13.5C14.0523 10 14.5 10.4477 14.5 11C14.5 11.5523 14.0523 12 13.5 12Z" stroke="#D6D1BB"/>
</svg>
