<svg width="230" height="230" viewBox="0 0 230 230" fill="none" xmlns="http://www.w3.org/2000/svg">
<path fill-rule="evenodd" clip-rule="evenodd" d="M98.173 21.752C95.3161 24.3375 94.8881 28.6171 94.0322 37.1764L92.2123 55.3754C92.0489 57.0089 91.9673 57.8257 91.4144 58.0547C90.8616 58.2837 90.2263 57.7639 88.9557 56.7243L74.7968 45.1397C68.1392 39.6926 64.8104 36.969 60.9621 37.161C57.1137 37.3529 54.0725 40.3942 47.9899 46.4767L47.9899 46.4767L46.4811 47.9856C40.3985 54.0681 37.3573 57.1094 37.1653 60.9577C36.9734 64.8061 39.6969 68.1349 45.1441 74.7925L56.7316 88.955C57.7712 90.2256 58.2909 90.8609 58.062 91.4137C57.833 91.9665 57.0162 92.0482 55.3827 92.2115L37.1764 94.0322C28.6171 94.8881 24.3375 95.3161 21.752 98.173C19.1665 101.03 19.1665 105.331 19.1665 113.933L19.1665 116.067C19.1665 124.669 19.1665 128.97 21.752 131.827C24.3375 134.684 28.6171 135.112 37.1764 135.967L55.3791 137.788C57.0126 137.951 57.8294 138.033 58.0584 138.586C58.2874 139.138 57.7676 139.774 56.728 141.044L45.1436 155.203C39.6965 161.861 36.9729 165.189 37.1649 169.038C37.3568 172.886 40.3981 175.927 46.4806 182.01L46.4806 182.01L47.9895 183.519C54.072 189.601 57.1133 192.643 60.9616 192.834C64.81 193.026 68.1388 190.303 74.7964 184.856L88.9553 173.271C90.2259 172.232 90.8612 171.712 91.414 171.941C91.9668 172.17 92.0485 172.987 92.2119 174.62L94.0322 192.823C94.8881 201.383 95.3161 205.662 98.173 208.248C101.03 210.833 105.331 210.833 113.933 210.833H116.067C124.669 210.833 128.97 210.833 131.827 208.248C134.684 205.662 135.112 201.383 135.967 192.823L137.788 174.616C137.952 172.983 138.033 172.166 138.586 171.937C139.139 171.708 139.774 172.228 141.045 173.267L155.203 184.851C161.861 190.299 165.189 193.022 169.038 192.83C172.886 192.638 175.927 189.597 182.01 183.514L183.519 182.006C189.601 175.923 192.643 172.882 192.834 169.033C193.026 165.185 190.303 161.856 184.856 155.199L173.275 141.044C172.235 139.773 171.715 139.138 171.944 138.585C172.173 138.032 172.99 137.951 174.624 137.787L192.823 135.967C201.383 135.112 205.662 134.684 208.248 131.827C210.833 128.97 210.833 124.669 210.833 116.067V113.933C210.833 105.331 210.833 101.03 208.248 98.173C205.662 95.3161 201.383 94.8881 192.823 94.0322L174.62 92.2118C172.986 92.0485 172.17 91.9668 171.941 91.414C171.712 90.8612 172.232 90.2259 173.271 88.9553L184.855 74.7968C190.302 68.1392 193.026 64.8104 192.834 60.9621C192.642 57.1137 189.601 54.0725 183.518 47.9899L182.009 46.4811C175.927 40.3985 172.886 37.3573 169.037 37.1653C165.189 36.9734 161.86 39.6969 155.203 45.1441L141.044 56.7281C139.774 57.7676 139.138 58.2874 138.586 58.0584C138.033 57.8295 137.951 57.0127 137.788 55.3792L135.967 37.1764C135.112 28.6171 134.684 24.3375 131.827 21.752C128.97 19.1665 124.669 19.1665 116.067 19.1665H113.933C105.331 19.1665 101.03 19.1665 98.173 21.752Z" fill="#7E869E" fill-opacity="0.25"/>
<circle cx="115" cy="115" r="28.75" fill="#748678"/>
</svg>
