<svg width="8" height="14" viewBox="0 0 8 14" fill="none" xmlns="http://www.w3.org/2000/svg">
<path d="M7.35355 12.6464C7.54882 12.8417 7.54882 13.1583 7.35355 13.3536C7.15829 13.5488 6.84171 13.5488 6.64645 13.3536L7.35355 12.6464ZM1 7L0.646448 7.35355L0.292894 7L0.646448 6.64645L1 7ZM6.64645 0.646447C6.84171 0.451185 7.15829 0.451185 7.35356 0.646447C7.54882 0.84171 7.54882 1.15829 7.35356 1.35355L6.64645 0.646447ZM6.64645 13.3536L0.646448 7.35355L1.35355 6.64645L7.35355 12.6464L6.64645 13.3536ZM0.646448 6.64645L6.64645 0.646447L7.35356 1.35355L1.35355 7.35355L0.646448 6.64645Z" fill="#27392D"/>
</svg>
