<svg width="12" height="12" viewBox="0 0 12 12" fill="none" xmlns="http://www.w3.org/2000/svg">
<path d="M5.25 8.5751L7.24 7.4351C7.575 7.2451 7.575 6.7601 7.24 6.5651L5.25 5.4251C4.915 5.2351 4.5 5.4801 4.5 5.8601V8.1351C4.5 8.5201 4.915 8.7651 5.25 8.5751ZM10.5 3.0001H6.705L8.175 1.5301C8.275 1.4301 8.275 1.2751 8.175 1.1751C8.075 1.0751 7.92 1.0751 7.82 1.1751L6 2.9951L4.18 1.1751C4.08 1.0751 3.925 1.0751 3.825 1.1751C3.725 1.2751 3.725 1.4301 3.825 1.5301L5.295 3.0001H1.5C0.95 3.0001 0.5 3.4451 0.5 4.0001V10.0001C0.5 10.5501 0.95 11.0001 1.5 11.0001H10.5C11.05 11.0001 11.5 10.5501 11.5 10.0001V4.0001C11.5 3.4451 11.05 3.0001 10.5 3.0001ZM10 10.0001H2C1.725 10.0001 1.5 9.7751 1.5 9.5001V4.5001C1.5 4.2251 1.725 4.0001 2 4.0001H10C10.275 4.0001 10.5 4.2251 10.5 4.5001V9.5001C10.5 9.7751 10.275 10.0001 10 10.0001Z" fill="#D6D1BB"/>
</svg>
