<svg width="12" height="12" viewBox="0 0 12 12" fill="none" xmlns="http://www.w3.org/2000/svg">
<path d="M1.03004 5.03001C1.28504 5.28501 1.69004 5.31001 1.96504 5.08001C4.30004 3.16001 7.69004 3.16001 10.03 5.07501C10.31 5.30501 10.72 5.28501 10.975 5.03001C11.27 4.73501 11.25 4.24501 10.925 3.98001C8.07004 1.64501 3.94004 1.64501 1.08004 3.98001C0.755042 4.24001 0.730042 4.73001 1.03004 5.03001ZM4.91004 8.91001L5.64504 9.64501C5.84004 9.84001 6.15504 9.84001 6.35004 9.64501L7.08504 8.91001C7.32004 8.67501 7.27004 8.27001 6.97004 8.11501C6.36004 7.80001 5.63004 7.80001 5.01504 8.11501C4.73004 8.27001 4.67504 8.67501 4.91004 8.91001ZM3.04504 7.04501C3.29004 7.29001 3.67504 7.31501 3.96004 7.11001C5.18004 6.24501 6.82004 6.24501 8.04004 7.11001C8.32504 7.31001 8.71004 7.29001 8.95504 7.04501L8.96004 7.04001C9.26004 6.74001 9.24004 6.23001 8.89504 5.98501C7.17504 4.74001 4.83004 4.74001 3.10504 5.98501C2.76004 6.23501 2.74004 6.74001 3.04504 7.04501Z" fill="#D6D1BB"/>
</svg>
