<svg width="24" height="24" viewBox="0 0 24 24" fill="none" xmlns="http://www.w3.org/2000/svg">
<circle cx="12" cy="12" r="7" stroke="#27392D" stroke-width="1.5"/>
<path d="M17.7505 7.63616C17.1172 8.35298 16.276 8.94114 15.2963 9.35203C14.3166 9.76293 13.2265 9.98478 12.1161 9.99924C11.0057 10.0137 9.90681 9.82039 8.91029 9.43524C7.91377 9.0501 7.04818 8.48418 6.38502 7.78425" stroke="#27392D" stroke-width="1.5"/>
<path d="M17.7505 16.3638C17.1172 15.647 16.276 15.0589 15.2963 14.648C14.3166 14.2371 13.2265 14.0152 12.1161 14.0008C11.0057 13.9863 9.90681 14.1796 8.91029 14.5648C7.91377 14.9499 7.04818 15.5158 6.38502 16.2158" stroke="#27392D" stroke-width="1.5"/>
<path d="M12 5V19" stroke="#27392D" stroke-width="1.5"/>
</svg>
