<svg width="200" height="80" viewBox="0 0 200 80" fill="none" xmlns="http://www.w3.org/2000/svg">
<g clip-path="url(#clip0_571_3369)">
<path d="M47.1523 41.8341V14.3215H51.9517V41.9217C51.9517 49.6961 56.4892 54.1439 63.6032 54.1439C70.4554 54.1439 75.3695 49.267 75.3695 41.5203V14.2985H77.3397V41.1789C77.3397 50.4066 71.9985 56.2709 62.5147 56.2709C52.8932 56.294 47.1523 50.785 47.1523 41.8341Z" fill="white"/>
<path d="M127.519 44.4731C127.519 51.8184 122.233 55.6064 111.904 55.6064H99.623V14.3214H112.106C120.758 14.3214 125.728 18.0494 125.728 24.3612C125.728 29.3534 121.93 33.0814 116.134 34.1426C123.206 34.8624 127.519 38.7334 127.519 44.4731ZM104.441 33.3398H111.408C117.378 33.3398 120.777 29.7271 120.777 24.7903C120.777 19.6274 117.433 16.3008 110.494 16.3008H104.441V33.3398ZM122.403 44.2424C122.403 38.4197 118.379 35.2638 111.44 35.2638H104.441V53.627H111.789C119.036 53.627 122.403 49.8667 122.403 44.2424Z" fill="white"/>
<path d="M195.173 14.3214H200V55.6064H195.173V14.3214Z" fill="white"/>
<path d="M15.5093 36.9756C22.5039 35.9144 26.674 31.725 26.674 25.8146C26.674 19.0461 21.42 14.3123 12.1108 14.3123H0V55.5972H4.82686V16.2593H10.9672C17.9342 16.2593 21.59 20.3057 21.59 25.9023C21.59 31.4989 17.9664 35.6284 10.8524 35.6284H6.99917V37.234H10.9948L22.6187 55.5972H28.3595L15.5093 36.9756Z" fill="white"/>
<path d="M161.554 30.7704L161.551 30.7733L164.783 34.7161L164.786 34.7132L161.554 30.7704Z" fill="#D3975D"/>
<path d="M167.824 32.0711L166.014 27.3142L161.073 14.3215H157.647L146.923 42.6646L149.959 40.2192L157.987 18.797L162.262 30.3317L164.035 35.1163L166.212 41.0036H166.207L171.613 55.6065H176.78L167.824 32.0711Z" fill="white"/>
<path d="M200 0L195.173 3.88027V10.0905L200 6.21028V0Z" fill="#D3975D"/>
<path d="M166.015 27.3141L167.824 32.071L195.173 10.0905V3.88025L166.015 27.3141Z" fill="#D3975D"/>
<path d="M149.959 40.2191L146.629 49.1054L164.03 35.1208L162.258 30.3362L149.959 40.2191Z" fill="#D3975D"/>
<path d="M142.022 55.6064H144.195L146.629 49.1055L143.543 51.5877L142.022 55.6064Z" fill="#D3975D"/>
<path d="M146.923 42.6645L143.543 51.5877L146.629 49.1054L149.959 40.2191L146.923 42.6645Z" fill="#D3975D"/>
<path d="M55.6257 71.4874H59.8555C62.0783 71.4874 63.7776 72.2764 64.4481 73.8636C64.6863 74.4232 64.8052 75.0267 64.7972 75.6353C64.8123 76.246 64.6931 76.8525 64.4481 77.4117C63.7363 78.9988 62.0599 79.7878 59.8555 79.7878H55.6211L55.6257 71.4874ZM59.7591 78.7866C61.518 78.7866 62.781 78.2006 63.3183 77.0241C63.5005 76.5859 63.5911 76.1148 63.5847 75.6399C63.5923 75.165 63.5016 74.6936 63.3183 74.2558C62.781 73.0792 61.518 72.4933 59.7591 72.4933H56.7555V78.7912L59.7591 78.7866Z" fill="#D3975D"/>
<path d="M74.4053 71.4874H75.5488V79.7924H74.4053V71.4874Z" fill="#D3975D"/>
<path d="M85.6339 71.4874H87.0117L93.0602 78.5513V71.4874H94.1946V79.7924H92.7709L86.7683 72.7839V79.7924H85.6201L85.6339 71.4874Z" fill="#D3975D"/>
<path d="M104.294 71.4874H105.442V79.7924H104.294V71.4874Z" fill="#D3975D"/>
<path d="M115.523 71.4874H116.901L122.95 78.5513V71.4874H124.084V79.7924H122.656L116.653 72.7839V79.7924H115.505L115.523 71.4874Z" fill="#D3975D"/>
<path d="M144.36 75.3907V75.4738C144.379 76.161 144.244 76.8435 143.965 77.4716C143.226 79.1049 141.472 79.9954 139.06 79.9954C136.512 79.9954 134.757 79.0357 134.055 77.4577C133.801 76.8843 133.672 76.2628 133.678 75.6353C133.673 75.0092 133.801 74.3893 134.055 73.8174C134.78 72.2302 136.535 71.2751 139.106 71.2751C140.737 71.2751 142.174 71.6627 143.12 72.5209C143.732 73.0556 144.138 73.7885 144.269 74.5925H143.015C142.916 74.0707 142.65 73.5958 142.257 73.2407C141.541 72.567 140.42 72.2856 139.143 72.2856C137.168 72.2856 135.749 72.9823 135.189 74.2511C134.999 74.687 134.906 75.1595 134.918 75.6353C134.907 76.1109 135 76.5833 135.189 77.0194C135.749 78.2882 137.155 78.9803 139.097 78.9803C140.875 78.9803 142.349 78.3713 142.923 77.1348C143.039 76.8825 143.113 76.6129 143.143 76.3366H139.469V75.3861L144.36 75.3907Z" fill="#D3975D"/>
</g>
<defs>
<clipPath id="clip0_571_3369">
<rect width="200" height="80" fill="white"/>
</clipPath>
</defs>
</svg>
